<svg width="148" height="38" viewBox="0 0 148 38" fill="none" xmlns="http://www.w3.org/2000/svg">
<path d="M15.1628 28.5632V25.5177H15.0258C13.473 28.0094 10.9154 29.1169 7.99246 29.1169C3.92772 29.1169 0 26.8558 0 22.4721C0 15.2737 8.31216 14.7661 13.7927 14.7661H15.1628V14.1662C15.1628 11.4437 13.062 10.0133 10.139 10.0133C7.85544 10.0133 5.75457 10.9361 4.29309 12.3205L1.41581 9.41338C3.83638 6.9216 7.26172 5.86029 10.7327 5.86029C20.0953 5.86029 20.0953 12.6896 20.0953 15.8274V28.5632H15.1628ZM14.8431 19.8881V18.6422H13.7014C10.6871 18.6422 5.48054 18.8729 5.48054 22.0568C5.48054 24.0872 7.53575 24.9639 9.31692 24.9639C13.062 24.9639 14.8431 22.9797 14.8431 19.8881Z" fill="#3A3A3A"/>
<path d="M44.6257 6.41402V28.5632H39.4192V25.0101H39.3279C38.3231 27.225 36.2679 29.1169 32.6142 29.1169C26.7226 29.1169 24.6218 24.9178 24.6218 20.3957V6.41402H30.1023V17.627C30.1023 20.0727 30.285 24.1333 34.1214 24.1333C37.7294 24.1333 39.1452 21.457 39.1452 18.5038V6.41402H44.6257Z" fill="#3A3A3A"/>
<path d="M51.4407 11.1207H46.9193V6.41402H51.4407V0H56.9213V6.41402H62.9499V11.1207H56.9213V20.811C56.9213 23.0259 57.5607 24.4102 59.9813 24.4102C60.9403 24.4102 62.2648 24.2256 62.9499 23.718V28.3786C61.8081 28.9323 59.8899 29.1169 58.6111 29.1169C52.8109 29.1169 51.4407 26.4867 51.4407 21.2724V11.1207Z" fill="#3A3A3A"/>
<path d="M64.7617 17.4886C64.7617 10.5208 70.0596 5.86029 76.6819 5.86029C83.3042 5.86029 88.6021 10.5208 88.6021 17.4886C88.6021 24.4563 83.3042 29.1169 76.6819 29.1169C70.0596 29.1169 64.7617 24.4563 64.7617 17.4886ZM70.2423 17.4886C70.2423 20.9494 72.6629 24.1333 76.6819 24.1333C80.701 24.1333 83.1216 20.9494 83.1216 17.4886C83.1216 14.0278 80.701 10.8438 76.6819 10.8438C72.6629 10.8438 70.2423 14.0278 70.2423 17.4886Z" fill="#3A3A3A"/>
<path d="M0 34.2987H88.6021V38H0V34.2987Z" fill="#008000"/>
<path d="M90.313 34.2987H147.874V38H90.313V34.2987Z" fill="#F25405"/>
<path fill-rule="evenodd" clip-rule="evenodd" d="M133.237 0L142.599 16.8828L148 26.8229L143.715 29.1977L141.56 25.2343H130.398V20.2993H138.879L138.323 19.2742L133.18 10.0012L122.402 28.93H120.988C120.861 28.93 120.735 28.9303 120.612 28.9305C118.924 28.9343 117.573 28.9373 116.189 28.2184C115.543 27.8833 114.929 27.4158 114.319 26.9481C114.226 26.877 114.131 26.8034 114.031 26.7269C113.785 26.5374 113.516 26.3305 113.215 26.1022C110.845 27.8863 107.97 28.93 104.753 28.93C96.8498 28.93 90.4352 22.4728 90.4352 14.4978C90.4352 6.52275 96.8498 0.0655111 104.753 0.0655111C112.656 0.0655111 119.071 6.52275 119.071 14.4978C119.071 15.4638 118.971 17.429 118.425 18.9421L114.022 16.3512C114.14 15.7502 114.182 15.1382 114.182 14.4978C114.182 9.25691 109.965 5.00058 104.753 5.00058C99.541 5.00058 95.3236 9.25691 95.3236 14.4978C95.3236 16.4391 95.9024 18.2454 96.8959 19.7503C98.045 18.864 99.5232 17.9701 101.297 17.429C104.481 16.4582 108.346 16.7095 112.516 19.549C113.275 20.0655 113.936 20.5298 114.515 20.9474C115.596 21.7253 116.395 22.3403 116.999 22.8054C117.097 22.8803 117.189 22.9513 117.276 23.0185C117.952 23.5368 118.226 23.7268 118.425 23.8299C118.429 23.8322 118.433 23.8344 118.437 23.8366C118.578 23.9101 118.675 23.9604 119.581 23.9824L133.237 0ZM100.711 23.0806C101.935 23.6668 103.306 23.9949 104.753 23.9949C106.237 23.9949 107.605 23.6634 108.836 23.0502C106.302 21.6202 104.268 21.6783 102.711 22.1533C101.979 22.3764 101.309 22.7061 100.711 23.0806Z" fill="#3A3A3A"/>
</svg>
